<mxfile host="Electron" agent="Mozilla/5.0 (Windows NT 10.0; Win64; x64) AppleWebKit/537.36 (KHTML, like Gecko) draw.io/24.7.8 Chrome/128.0.6613.36 Electron/32.0.1 Safari/537.36" version="24.7.8">
  <diagram name="Page-1" id="DjSRyfA6Q6mpH6Zsv91K">
    <mxGraphModel dx="1912" dy="2315" grid="0" gridSize="10" guides="1" tooltips="1" connect="1" arrows="1" fold="1" page="0" pageScale="1" pageWidth="850" pageHeight="1100" math="0" shadow="0">
      <root>
        <mxCell id="0" />
        <mxCell id="1" parent="0" />
        <mxCell id="NovwSX-GOHXdijx4oJkc-7" value="" style="rounded=0;whiteSpace=wrap;html=1;fillColor=#dae8fc;strokeColor=#6c8ebf;" vertex="1" parent="1">
          <mxGeometry x="339" y="-343" width="2084" height="1572" as="geometry" />
        </mxCell>
        <mxCell id="R6FvQT_dSRLeVgRvF4Xx-3" value="" style="endArrow=block;html=1;rounded=0;endFill=1;strokeWidth=10;" parent="1" edge="1">
          <mxGeometry width="50" height="50" relative="1" as="geometry">
            <mxPoint x="338" y="1230" as="sourcePoint" />
            <mxPoint x="3523" y="1230" as="targetPoint" />
          </mxGeometry>
        </mxCell>
        <mxCell id="R6FvQT_dSRLeVgRvF4Xx-7" value="&lt;font style=&quot;font-size: 30px;&quot;&gt;Complexity&lt;/font&gt;" style="text;html=1;align=center;verticalAlign=middle;whiteSpace=wrap;rounded=0;" parent="1" vertex="1">
          <mxGeometry x="1256" y="1234" width="60" height="30" as="geometry" />
        </mxCell>
        <mxCell id="R6FvQT_dSRLeVgRvF4Xx-9" value="&lt;font style=&quot;font-size: 30px;&quot;&gt;Memory Usage&lt;/font&gt;" style="text;html=1;align=center;verticalAlign=middle;whiteSpace=wrap;rounded=0;rotation=-90;" parent="1" vertex="1">
          <mxGeometry x="177" y="118" width="277" height="30" as="geometry" />
        </mxCell>
        <mxCell id="NovwSX-GOHXdijx4oJkc-1" value="" style="endArrow=none;html=1;rounded=0;strokeWidth=10;fillColor=#d5e8d4;strokeColor=#82b366;" edge="1" parent="1">
          <mxGeometry width="50" height="50" relative="1" as="geometry">
            <mxPoint x="332" y="1148" as="sourcePoint" />
            <mxPoint x="3668" y="-916" as="targetPoint" />
          </mxGeometry>
        </mxCell>
        <mxCell id="NovwSX-GOHXdijx4oJkc-2" value="" style="endArrow=none;html=1;rounded=0;strokeWidth=10;fillColor=#f8cecc;strokeColor=#b85450;" edge="1" parent="1">
          <mxGeometry width="50" height="50" relative="1" as="geometry">
            <mxPoint x="333" y="375" as="sourcePoint" />
            <mxPoint x="3660" y="-620" as="targetPoint" />
          </mxGeometry>
        </mxCell>
        <mxCell id="NovwSX-GOHXdijx4oJkc-3" value="&lt;font style=&quot;font-size: 30px;&quot;&gt;PMMA: 43.31 MB&amp;nbsp;&lt;/font&gt;" style="text;html=1;align=center;verticalAlign=middle;whiteSpace=wrap;rounded=0;" vertex="1" parent="1">
          <mxGeometry x="180" y="357" width="143" height="30" as="geometry" />
        </mxCell>
        <mxCell id="NovwSX-GOHXdijx4oJkc-4" value="&lt;font style=&quot;font-size: 30px;&quot;&gt;Raw Python:&lt;/font&gt;&lt;div style=&quot;font-size: 30px;&quot;&gt;&lt;font style=&quot;font-size: 30px;&quot;&gt;6.3 MB&lt;/font&gt;&lt;/div&gt;" style="text;html=1;align=center;verticalAlign=middle;whiteSpace=wrap;rounded=0;" vertex="1" parent="1">
          <mxGeometry x="248" y="1133.25" width="60" height="30" as="geometry" />
        </mxCell>
        <mxCell id="NovwSX-GOHXdijx4oJkc-5" value="" style="rounded=0;whiteSpace=wrap;html=1;rotation=90;strokeColor=none;" vertex="1" parent="1">
          <mxGeometry x="315" y="1140" width="28" height="16.5" as="geometry" />
        </mxCell>
        <mxCell id="NovwSX-GOHXdijx4oJkc-6" value="" style="rounded=0;whiteSpace=wrap;html=1;rotation=90;strokeColor=none;" vertex="1" parent="1">
          <mxGeometry x="315" y="366.75" width="28" height="16.5" as="geometry" />
        </mxCell>
        <mxCell id="R6FvQT_dSRLeVgRvF4Xx-2" value="" style="endArrow=block;html=1;rounded=0;endFill=1;strokeWidth=10;" parent="1" edge="1">
          <mxGeometry width="50" height="50" relative="1" as="geometry">
            <mxPoint x="338" y="1233" as="sourcePoint" />
            <mxPoint x="338" y="-729" as="targetPoint" />
          </mxGeometry>
        </mxCell>
      </root>
    </mxGraphModel>
  </diagram>
</mxfile>
